<svg width="407" height="455" viewBox="0 0 407 455" fill="none" xmlns="http://www.w3.org/2000/svg">
<path d="M0 408.933C-2.93144e-07 444.344 38.3333 466.476 69 448.77L383.25 267.338C413.917 249.633 413.917 205.369 383.25 187.664L69.0001 6.23146C38.3334 -11.4739 3.29708e-06 10.6578 3.00393e-06 46.0686L0 408.933Z" fill="black"/>
<path d="M138.567 233.746C143.9 230.667 150.567 234.516 150.567 240.674V299.564C150.567 305.722 143.9 309.571 138.567 306.492L87.5669 277.047C82.2336 273.968 82.2336 266.27 87.5669 263.191L138.567 233.746Z" fill="white"/>
<path d="M282.176 216.2L94.1152 107.623C86.1171 103.005 76.1189 108.775 76.1152 118.01L76.0915 176.886C76.0897 181.175 78.3772 185.139 82.0915 187.283L219.059 266.361C222.764 268.501 227.328 268.505 231.038 266.373L282.155 236.996C290.174 232.388 290.185 220.824 282.176 216.2Z" fill="white"/>
</svg>
